<mxfile host="app.diagrams.net" modified="2024-02-11T21:06:53.398Z" agent="Mozilla/5.0 (Macintosh; Intel Mac OS X 10_15_7) AppleWebKit/605.1.15 (KHTML, like Gecko) Version/17.3.1 Safari/605.1.15" version="23.1.2" etag="LypnJJyqX2g5U1L8b3oA" type="github">
  <diagram name="Page-1" id="JI9L5QRsq6dDatirom8D">
    <mxGraphModel>
      <root>
        <mxCell id="0" />
        <mxCell id="1" parent="0" />
      </root>
    </mxGraphModel>
  </diagram>
</mxfile>
